/* XPM */
static char *_eeb299e9aa7471be8144fed584df57egXraHBa36SIeYc5Q[] = {
/* columns rows colors chars-per-pixel */
"235 20 4 1 ",
"  c black",
". c #151515",
"X c #1D1D1D",
"o c gray18",
/* pixels */
"oooo oooooooooo oooooooooo oooooooooo oooooooooo oooooooooo oooooooooo oooooooooo oooooooooo oooooooooo oooooooooo oooooooooo oooooooooo oooooooooo oooooooooo oooooooooo oooooooooo oooooooooo oooooooooo oooooooooo oooooooooo oooooooooo",
"XXX. ooXXXXXXX. ooXXXXXXX. ooXXXXXXX. ooXXXXXXX. ooXXXXXXX. ooXXXXXXX. ooXXXXXXX. ooXXXXXXX. ooXXXXXXX. ooXXXXXXX. ooXXXXXXX. ooXXXXXXX. ooXXXXXXX. ooXXXXXXX. ooXXXXXXX. ooXXXXXXX. ooXXXXXXX. ooXXXXXXX. ooXXXXXXX. ooXXXXXXX. ooXXXXXXX.",
"XXX. ooXXXXXXX. ooXXXXXXX. ooXXXXXXX. ooXXXXXXX. ooXXXXXXX. ooXXXXXXX. ooXXXXXXX. ooXXXXXXX. ooXXXXXXX. ooXXXXXXX. ooXXXXXXX. ooXXXXXXX. ooXXXXXXX. ooXXXXXXX. ooXXXXXXX. ooXXXXXXX. ooXXXXXXX. ooXXXXXXX. ooXXXXXXX. ooXXXXXXX. ooXXXXXXX.",
"XXX. ooXXXXXXX. ooXXXXXXX. ooXXXXXXX. ooXXXXXXX. ooXXXXXXX. ooXXXXXXX. ooXXXXXXX. ooXXXXXXX. ooXXXXXXX. ooXXXXXXX. ooXXXXXXX. ooXXXXXXX. ooXXXXXXX. ooXXXXXXX. ooXXXXXXX. ooXXXXXXX. ooXXXXXXX. ooXXXXXXX. ooXXXXXXX. ooXXXXXXX. ooXXXXXXX.",
"XXX. ooXXXXXXX. ooXXXXXXX. ooXXXXXXX. ooXXXXXXX. ooXXXXXXX. ooXXXXXXX. ooXXXXXXX. ooXXXXXXX. ooXXXXXXX. ooXXXXXXX. ooXXXXXXX. ooXXXXXXX. ooXXXXXXX. ooXXXXXXX. ooXXXXXXX. ooXXXXXXX. ooXXXXXXX. ooXXXXXXX. ooXXXXXXX. ooXXXXXXX. ooXXXXXXX.",
"XXX. ooXXXXXXX. ooXXXXXXX. ooXXXXXXX. ooXXXXXXX. ooXXXXXXX. ooXXXXXXX. ooXXXXXXX. ooXXXXXXX. ooXXXXXXX. ooXXXXXXX. ooXXXXXXX. ooXXXXXXX. ooXXXXXXX. ooXXXXXXX. ooXXXXXXX. ooXXXXXXX. ooXXXXXXX. ooXXXXXXX. ooXXXXXXX. ooXXXXXXX. ooXXXXXXX.",
"XXX. ooXXXXXXX. ooXXXXXXX. ooXXXXXXX. ooXXXXXXX. ooXXXXXXX. ooXXXXXXX. ooXXXXXXX. ooXXXXXXX. ooXXXXXXX. ooXXXXXXX. ooXXXXXXX. ooXXXXXXX. ooXXXXXXX. ooXXXXXXX. ooXXXXXXX. ooXXXXXXX. ooXXXXXXX. ooXXXXXXX. ooXXXXXXX. ooXXXXXXX. ooXXXXXXX.",
".... oo........ oo........ oo........ oo........ oo........ oo........ oo........ oo........ oo........ oo........ oo........ oo........ oo........ oo........ oo........ oo........ oo........ oo........ oo........ oo........ oo........",
".... oo........ oo........ oo........ oo........ oo........ oo........ oo........ oo........ oo........ oo........ oo........ oo........ oo........ oo........ oo........ oo........ oo........ oo........ oo........ oo........ oo........",
"                                                                                                                                                                                                                                           ",
"oooooooooo oooooooooo oooooooooo oooooooooo oooooooooo oooooooooo oooooooooo oooooooooo oooooooooo oooooooooo oooooooooo oooooooooo oooooooooo oooooooooo oooooooooo oooooooooo oooooooooo oooooooooo oooooooooo oooooooooo oooooooooo oooo",
"oXXXXXXX.. oXXXXXXX.. oXXXXXXX.. oXXXXXXX.. oXXXXXXX.. oXXXXXXX.. oXXXXXXX.. oXXXXXXX.. oXXXXXXX.. oXXXXXXX.. oXXXXXXX.. oXXXXXXX.. oXXXXXXX.. oXXXXXXX.. oXXXXXXX.. oXXXXXXX.. oXXXXXXX.. oXXXXXXX.. oXXXXXXX.. oXXXXXXX.. oXXXXXXX.. oXXX",
"oXXXXXXX.. oXXXXXXX.. oXXXXXXX.. oXXXXXXX.. oXXXXXXX.. oXXXXXXX.. oXXXXXXX.. oXXXXXXX.. oXXXXXXX.. oXXXXXXX.. oXXXXXXX.. oXXXXXXX.. oXXXXXXX.. oXXXXXXX.. oXXXXXXX.. oXXXXXXX.. oXXXXXXX.. oXXXXXXX.. oXXXXXXX.. oXXXXXXX.. oXXXXXXX.. oXXX",
"oXXXXXXX.. oXXXXXXX.. oXXXXXXX.. oXXXXXXX.. oXXXXXXX.. oXXXXXXX.. oXXXXXXX.. oXXXXXXX.. oXXXXXXX.. oXXXXXXX.. oXXXXXXX.. oXXXXXXX.. oXXXXXXX.. oXXXXXXX.. oXXXXXXX.. oXXXXXXX.. oXXXXXXX.. oXXXXXXX.. oXXXXXXX.. oXXXXXXX.. oXXXXXXX.. oXXX",
"oXXXXXXX.. oXXXXXXX.. oXXXXXXX.. oXXXXXXX.. oXXXXXXX.. oXXXXXXX.. oXXXXXXX.. oXXXXXXX.. oXXXXXXX.. oXXXXXXX.. oXXXXXXX.. oXXXXXXX.. oXXXXXXX.. oXXXXXXX.. oXXXXXXX.. oXXXXXXX.. oXXXXXXX.. oXXXXXXX.. oXXXXXXX.. oXXXXXXX.. oXXXXXXX.. oXXX",
"oXXXXXXX.. oXXXXXXX.. oXXXXXXX.. oXXXXXXX.. oXXXXXXX.. oXXXXXXX.. oXXXXXXX.. oXXXXXXX.. oXXXXXXX.. oXXXXXXX.. oXXXXXXX.. oXXXXXXX.. oXXXXXXX.. oXXXXXXX.. oXXXXXXX.. oXXXXXXX.. oXXXXXXX.. oXXXXXXX.. oXXXXXXX.. oXXXXXXX.. oXXXXXXX.. oXXX",
"oXXXXXXX.. oXXXXXXX.. oXXXXXXX.. oXXXXXXX.. oXXXXXXX.. oXXXXXXX.. oXXXXXXX.. oXXXXXXX.. oXXXXXXX.. oXXXXXXX.. oXXXXXXX.. oXXXXXXX.. oXXXXXXX.. oXXXXXXX.. oXXXXXXX.. oXXXXXXX.. oXXXXXXX.. oXXXXXXX.. oXXXXXXX.. oXXXXXXX.. oXXXXXXX.. oXXX",
"o......... o......... o......... o......... o......... o......... o......... o......... o......... o......... o......... o......... o......... o......... o......... o......... o......... o......... o......... o......... o......... o...",
"o......... o......... o......... o......... o......... o......... o......... o......... o......... o......... o......... o......... o......... o......... o......... o......... o......... o......... o......... o......... o......... o...",
"                                                                                                                                                                                                                                           "
};
