/* XPM */
static char * chao2_xpm[] = {
"50 50 142 2",
"  	c #545454",
". 	c #5C5555",
"+ 	c #9E9E9E",
"@ 	c #757575",
"# 	c #6C6C6C",
"$ 	c #873737",
"% 	c #6A0000",
"& 	c #000000",
"* 	c #616161",
"= 	c #872424",
"- 	c #490000",
"; 	c #120000",
"> 	c #635C5C",
", 	c #784444",
"' 	c #5B1212",
") 	c #531212",
"! 	c #212121",
"~ 	c #FFFFFF",
"{ 	c #202020",
"] 	c #2F2F2F",
"^ 	c #2A2A2A",
"/ 	c #4D4D4D",
"( 	c #0D0D0D",
"_ 	c #424242",
": 	c #251316",
"< 	c #690D1D",
"[ 	c #614449",
"} 	c #494949",
"| 	c #4C4C4C",
"1 	c #5D5C5C",
"2 	c #655656",
"3 	c #45161E",
"4 	c #AA253C",
"5 	c #733C46",
"6 	c #563C41",
"7 	c #AB243B",
"8 	c #932F40",
"9 	c #6D4D4D",
"0 	c #191919",
"a 	c #BE1C38",
"b 	c #DC0F32",
"c 	c #8F051C",
"d 	c #F4052E",
"e 	c #C51936",
"f 	c #A0293D",
"g 	c #D01334",
"h 	c #7C3535",
"i 	c #353535",
"j 	c #DA0F33",
"k 	c #8B1C1C",
"l 	c #E00C31",
"m 	c #444444",
"n 	c #773E3E",
"o 	c #982034",
"p 	c #6A5555",
"q 	c #3C3C3C",
"r 	c #252525",
"s 	c #551621",
"t 	c #734343",
"u 	c #161616",
"v 	c #1C1C1C",
"w 	c #591C27",
"x 	c #292929",
"y 	c #363636",
"z 	c #7A3B3B",
"A 	c #242424",
"B 	c #684646",
"C 	c #8B3131",
"D 	c #553B3B",
"E 	c #3E2F2F",
"F 	c #583E3E",
"G 	c #6E3232",
"H 	c #504646",
"I 	c #6C2323",
"J 	c #673B3B",
"K 	c #654B4B",
"L 	c #5E2E2E",
"M 	c #741E1E",
"N 	c #5B4343",
"O 	c #6B3A3A",
"P 	c #3C1A1A",
"Q 	c #3D0000",
"R 	c #620202",
"S 	c #8A0303",
"T 	c #740A0A",
"U 	c #652B2B",
"V 	c #6B0D0D",
"W 	c #4C3333",
"X 	c #624444",
"Y 	c #640E0E",
"Z 	c #5C0E0E",
"` 	c #583131",
" .	c #6D2C2C",
"..	c #7B0909",
"+.	c #4C0B0B",
"@.	c #4A1616",
"#.	c #451717",
"$.	c #331C1C",
"%.	c #423838",
"&.	c #421818",
"*.	c #472929",
"=.	c #391515",
"-.	c #352626",
";.	c #2C1D1D",
">.	c #241E1E",
",.	c #440F0F",
"'.	c #931717",
").	c #9D1E1E",
"!.	c #990B0B",
"~.	c #8D2B2B",
"{.	c #9A0505",
"].	c #941A1A",
"^.	c #824949",
"/.	c #7A6868",
"(.	c #745353",
"_.	c #844747",
":.	c #661D1D",
"<.	c #873E3E",
"[.	c #9D5F5F",
"}.	c #7D4D4D",
"|.	c #736565",
"1.	c #822E2E",
"2.	c #6C5959",
"3.	c #2C2B2B",
"4.	c #1F1F1F",
"5.	c #3A3A3A",
"6.	c #131313",
"7.	c #744A4A",
"8.	c #553333",
"9.	c #4D1A1A",
"0.	c #820808",
"a.	c #631010",
"b.	c #4C2020",
"c.	c #080808",
"d.	c #531B1B",
"e.	c #702A2A",
"f.	c #3B3030",
"g.	c #6E6464",
"h.	c #4C3A3A",
"i.	c #7E0202",
"j.	c #3D0E0E",
"k.	c #530000",
"  . + @ @ @ @ @ @ @ @ @ @ @ @ @ @ @ @ @ @ # $ % & * * + @ @ @ @ @ @ @ @ @ @ @ @ @ @ @ @ @ @ @ * & & ",
"    + @ @ @ @ @ @ @ @ @ @ @ @ @ @ @ @ @ @ * = - ; * * + @ @ @ @ @ @ @ @ @ @ @ @ @ @ @ @ @ @ @ * & & ",
"+ + * * * * # * * * * * * * * * * * * * * > , ' ) + + * * * * * * * * * * * * * * * * * * * * @ ! ! ",
"@ @ * * * * * * * * * * * * * * * * * * * ~ ~ ~ ~ ~ ~ ~ ~ ~ * * * * * * * * * * * * * * * * * * ! ! ",
"@ @ * * * * * * * * * * * * * * * * * * * ~ { ] ^ ] ] / ] ~ * * * * * * * * * * * * * * * * * * ! ! ",
"@ @ * * * * * * * * * * * * * * * * * * * ~ ( / ] / / / / ~ * * * * * * * * * * * * * * * * * _ ! ! ",
"@ @ * * * * * * * * * * * * * * * * * * * ~ : / ~ / / ~ / ~ * * * * # * * * * * * * * * * * * _ ! ! ",
"@ @ * * * * * * * * * * * * * * * * * * * ~ < [ } / / [ [ ~ * * * * * * * * * * * * * * * * * | ! ! ",
"@ @ * * * * 1 * * 2 * * * * * * * * * * * ~ 3 4 5 6 [ 7 8 ~ * * * * * * * * * * * * * * * * * _ ! ! ",
"@ @ * * * *   1 * 9 * * * * * * * * * * ~ ~ 0 a b c d e / ~ * * * * * * * * * * * * * * * * * _ ! ! ",
"@ @ * * * *   * > 2 * * * * * * * * * * ~ & ^ } f g g 8 / ~ * * * * * * * * * * * * * * * * * _ ! ! ",
"@ @ * * * *   * * h * * * * * * * * ~ ~ ~ & i / f j ~ ~ ~ ~ * * * * * * * * * * * * * * * * * _ ! ! ",
"@ @ * * * *   * * k * * * * * ~ ~ ~ ~ ^ { 0 / / 8 8 l [ m ~ ~ ~ * * * * * * * * * * * * * * * _ ! ! ",
"@ @ * * * 1   * * n * * * * ~ ~ i ^ { ^ 0 ] / / f / o o ] m m ~ ~ * * * * * * * * * * * * * * _ ! ! ",
"@ @ * * * *   * * p 1 * * * ~ q ( r 0 ] ^ / / / f / / s m ^ ] ^ ~ * * * * * * * * * * * * * * _ ! ! ",
"@ @ * * * * _ * * t * * * * ~ u u u v / i / / / f / / w x ] / ^ ~ * * * * * * * * * * * * * * _ ! ! ",
"@ @ * * * * _ * > p * * * * ~ 0 u v m / / / / / o [ / / i / / ^ ~ * * * * * * * * * * * * * * _ ! ! ",
"@ # * * * * y * > p > * * * ~ r 0 m ] / / / / / / 8 / / / / / ^ ~ * * * * * * * * * * * * * * _ ! ! ",
"@ @ * * * * _ * * * z * * * ~ u ] ^ / / / / / / / f / / / / m ] ~ > * * * * * * * * * * * * * _ ! ! ",
"@ @ * * * *   1 * * t * * * ~ u / ^ / / / / / / / f / / / / A / ~ B * * * * * * * * * * * * *   ! ! ",
"@ @ * * * * . 1 * * t * * * ~ u / { / / / / / / / f / / / / v m ~ n * * * * * * * * * * * * *   ! ! ",
"@ @ 2 * * *     * * > 1 * > ~ 0 m 0 / / / / / / / o / / / / m ] ~ p * * > * 2 * * * > > * > * . ! ! ",
"p h C n 9 > D E F . . G H I ~ ^ r i } / / / / / / f / / / / ^ / ~ J 2 2 K . K . K L M B N O 1 P Q Q ",
"R S T T L U V W X Y ) Z Z ' ~ ^ u / / / / / / / / 8 / / / / ^ / ~ `  .K Y V U U V T T ..V U U +...T ",
"Y Z @.#.$.@.P P #.$.P $.@.P ~ ^ u / / / / / / / / / / / / / ] / ~ %.&.P *.$.=.-.-.&.$.#.;.P #.>.,.=.",
"z '.).!.'.~.~.!.!.{.'.!.].~.~ ^ 0 / / / / / / / / / / / / / ^ / ~ ~.^./.(.$ _.(.h :.'.C ]._.<.'.R & ",
"* 2 [._.}.@ # |.(.1.(.# # }.~ ^ ] m / / / / / / / / / / / / ] q ~ t 2.(.z t 2.@ , @ @ # @ @ ^.* & & ",
"+ [.* * > * * > * > * * * * ~ ] m ^ / / m / / / / / / / / / / 0 ~ * * 1 * > * * * * * * * 1 * @ 3.4.",
"@ @ * * * * * * * * 2 * * * ~ ~ ^ x / q i } / / / m / / / / / ^ ~ * * * * z * * * * * * * * * * 5.3.",
"@ @ * * * * * * * 1 2 * * * * ~ x ] ~ 6./ m / m m ] / q m / / x ~ * * * * 7.* * * * * * * * * * ! | ",
"@ @ * * * * * * * * > 1 * * * ~ ^ / ~ ( / { m ] ^ / q 0 ] / / x ~ * * * * 9 * * * * * * * * * _ ! ! ",
"@ @ * * * * * 1 * * * * * * * ~ ^ / ~ u m 0 ^ / ^ m 0 / / m m ] ~ * * * * 2 * * * * * * * * * _ ! ! ",
"@ @ * * * * * * * * > * * * * ~ ^ / ~ u ^ { ] m ] ^ ] / q ] ^ / ~ * * * * > > * * * * * * * * _ ! ! ",
"@ @ * * * * * * * * > > * * * ~ ] / ~ u ^ 0 8.! S @ * * u m ] ~ ~ * * * * p * * * * * * * * * _ ! ! ",
"@ @ * * * * * * * 1 * * * * * ~ / / ~ u r ] 9.! 0./.# * 6.] / ~ * * * * * > * * * * * * * * * _ ! ! ",
"@ @ * * * * * * * * * > * * * ~ ~ ^ ~ u u / 3.;.a.2./.* ( / / ~ * * * * * 2 * * * * * * * * * _ ! ! ",
"@ @ * * * * * * 1 * * * * * * * ~ ^ ~ u ( / b.$.M |._.* ( / / ~ * * * * * > * * * * * * * * * _ ! ! ",
"@ @ * * * * * * * * * * * * * * ~ ^ ~ c.r / d.$.B _.@ * ^ / / ~ * * * * * * * * * * * * * * * _ ! ! ",
"@ @ * * * * * * * * * * * * * * ~ ^ ~ ( 0 / P ! G /.@ * ^ m / ~ * * * * * > * * * * * * * * * _ ! ! ",
"@ @ * * * * * * * * * * * * * * ~ ^ ~ ( i / b.&.e.^.@ * ^ ^ / ~ * * * * * 1 * * * * * * * * * _ ! ! ",
"@ @ * * * * * * * * * * * * * * ~ ~ ~ c./ / d.' ' |.@ * ^ ^ / ~ * * * * * * * * * * * * * * * _ ! ! ",
"@ @ * * * * * * * * * * * * * * * * ~ u / / d.a.' (.@ * r ^ / ~ * * * * * * * * * * * * * * * _ ! ! ",
"@ @ * * * * * * * * * * * * * * * * ~ u / / f.T ' g.@ * r ] / ~ * * * * * * * * * * * * * * * _ ! ! ",
"@ @ * * * * * * * * * * * * * * * * ~ 6./ / I ' @.p # * 0 / / ~ * * * * * * * * * * * * * * * _ ! ! ",
"@ @ * * * * * * * * * * * * * * * * ~ ( / * I ' P |./.* ^ ~ ~ ~ * * * * * * * * * * * * * * * _ ! ! ",
"@ @ * * * * * * * * * * * * * * * * ~ u / * U ' P <._.* ^ ~ * * * * * * * * * * * * * * * * * _ ! ! ",
"@ @ * * * * * * * * * * * * * * * * ~ 0 / * h.V &.<.@ * ^ ~ * * * * * * * * * * * * * * * * * _ ! ! ",
"* * @ * * _ _ _ _ _ _ _ _ _ _ _ _ _ ~ ^ / h.' i.j.z * @ ^ ~ _ _ _ _ _ _ _ _ _ _ _ _ _ _ _ _ _ ! & & ",
"& & ! ! ! ! ! ! ! ! ! ! ! ! ! ! ! ! ~ r / d.k.Q @.& & ! ^ ~ ! ! ! ! ! ! ! ! ! ! ! ! ! ! ! ! ! & & & ",
"& & ! ! ! ! ! ! ! ! ! ! ! ! ! ! ! ! ~ ~ ~ ~ ~ ~ ~ ~ ~ ~ ~ ~ ! ! ! ! ! ! ! ! ! ! ! ! ! ! ! ! ! & & & "};
