/* XPM */
static char *_3ad428c6121464abf4cdf224326010a7W8Qb3n4IRr8pjiQ[] = {
/* columns rows colors chars-per-pixel */
"50 50 117 2 ",
"   c black",
".  c #120000",
"X  c gray12",
"o  c #3D0000",
"O  c #3D0E0E",
"+  c #241E1E",
"@  c #2C1D1D",
"#  c #391515",
"$  c #331C1C",
"%  c #3C1A1A",
"&  c #212121",
"*  c #2C2B2B",
"=  c #352626",
"-  c #3A2222",
";  c #3E2F2F",
":  c gray21",
">  c #3B3030",
",  c #3A3A3A",
"<  c #490000",
"1  c #440F0F",
"2  c #4C0B0B",
"3  c #530000",
"4  c #520D0D",
"5  c #5C0E0E",
"6  c #451717",
"7  c #4A1616",
"8  c #421818",
"9  c #4D1A1A",
"0  c #531212",
"q  c #5B1212",
"w  c #531B1B",
"e  c #620202",
"r  c #6A0000",
"t  c #640E0E",
"y  c #6B0D0D",
"u  c #740606",
"i  c #7E0202",
"p  c #740A0A",
"a  c #7B0909",
"s  c #631010",
"d  c #661D1D",
"f  c #771414",
"g  c #741E1E",
"h  c #4C2020",
"j  c #472929",
"k  c #5E2E2E",
"l  c #4C3333",
"z  c #423838",
"x  c #4C3A3A",
"c  c #553333",
"v  c #583131",
"b  c #553B3B",
"n  c #583E3E",
"m  c #6C2323",
"M  c #652B2B",
"N  c #6D2C2C",
"B  c #7A2323",
"V  c #702A2A",
"C  c #6E3232",
"Z  c #673B3B",
"A  c #6B3A3A",
"S  c #7C3535",
"D  c #773E3E",
"F  c #7A3B3B",
"G  c #424242",
"H  c #4C4C4C",
"J  c #504646",
"K  c #5B4343",
"L  c #554A4A",
"P  c #545454",
"I  c #5C5555",
"U  c #5D5C5C",
"Y  c #624444",
"T  c #684646",
"R  c #654B4B",
"E  c #6D4D4D",
"W  c #734343",
"Q  c #784444",
"!  c #744A4A",
"~  c #7D4D4D",
"^  c #655656",
"/  c #6A5555",
"(  c #635C5C",
")  c #6C5959",
"_  c #745353",
"`  c #7B5D5D",
"'  c #616161",
"]  c #6E6464",
"[  c #6C6C6C",
"{  c #736565",
"}  c #7A6868",
"|  c #757575",
" . c #840606",
".. c #8A0303",
"X. c #820808",
"o. c #8A0D0D",
"O. c #900404",
"+. c #9A0505",
"@. c #990B0B",
"#. c #8B1C1C",
"$. c #931717",
"%. c #941A1A",
"&. c #9D1E1E",
"*. c #872424",
"=. c #8A2020",
"-. c #822E2E",
";. c #8D2B2B",
":. c #902525",
">. c #873737",
",. c #8B3131",
"<. c #873E3E",
"1. c #963333",
"2. c #844747",
"3. c #824949",
"4. c #825252",
"5. c #9D5F5F",
"6. c gray62",
/* pixels */
"P I 6.| | | | | | | | | | | | | | | | | | [ >.r   ' ' 6.| | | | | | | | | | | | | | | | | | | '     ",
"P P 6.| | | | | | | | | | | | | | | | | | ' *.< . ' ' 6.| | | | | | | | | | | | | | | | | | | '     ",
"6.6.' ' ' ' [ ' ' ' ' ' ' ' ' ' ' ' ' ' ' ( Q q 0 6.6.' ' ' ' ' ' ' ' ' ' ' ' ' ' ' ' ' ' ' ' | & & ",
"| | ' ' ' ' ' ' ' ' ' ' ' ' ' ' ' ' ' ' ' ( E q @ } | ' ' ' ' ' ' ' ' ' ' ' ' ' ' ' ' ' ' ' ' ' & & ",
"| | ' ' ' ' ' ' ' ' ' ' ' ' ' ' ' ' ' ' ' ' W q y 2.| ' ' ' ' ' ' ' ' ' ' ' ' ' ' ' ' ' ' ' ' ' & & ",
"| | ' ' ' ' ' ' ' ' ' ' ' ' ' ' ' ' ' ' ' ' Z s a 3.| ' ' ' ' ' ' ' ' ' ' ' ' ' ' ' ' ' ' ' ' G & & ",
"| | ' ' ' ' ' ' ' ' ' ' ' ' ' ' ' ' ' ' ' ' N X.a | | ' ' ' ' ' ' ' [ ' ' ' ' ' ' ' ' ' ' ' ' G & & ",
"| | ' ' ' ' ' ' ' ' ' ' ' ' ' ' ' ' ' ' ' ' c O.p | | ' ' ' ' ' ' ' ' ' ' ' ' ' ' ' ' ' ' ' ' H & & ",
"| | ' ' ' ' U ' ' ^ ' ' ' ' ' ' ' ' ' ' ' ' B X.0 | | ' ' ' ' ' ' ' ' ' ' ' ' ' ' ' ' ' ' ' ' G & & ",
"| | ' ' ' ' P U ' E ' ' ' ' ' ' ' ' ' ' ' ' L o.% | | ' ' ' ' ' ' ' ' ' ' ' ' ' ' ' ' ' ' ' ' G & & ",
"| | ' ' ' ' P ' ( ^ ' ' ' ' ' ' ' ' ' ' ' ( R v a | | ' ' ' ' ' ' ' ' ' ' ' ' ' ' ' ' ' ' ' ' G & & ",
"| | ' ' ' ' P ' ' S ' ' ' ' ' ' ' ' ' ' ' E I a p | | ' ' ' ' ' ' ' ' ' ' ' ' ' ' ' ' ' ' ' ' G & & ",
"| | ' ' ' ' P ' ' #.' ' ' ' ' ' ' ' ' ' ' ( R a s [ [ ' ' ' ' ' ' ' ' ' ' ' ' ' ' ' ' ' ' ' ' G & & ",
"| | ' ' ' U P ' ' D ' ' ' ' ' ' ' ' ' ' ' ( x p f ' | ' ' ' ' ' ' ' ' ' ' ' ' ' ' ' ' ' ' ' ' G & & ",
"| | ' ' ' ' P ' ' / U ' ' ' ' ' ' ' ' ' ' ' m p C [ [ ' ' ' ' ' ' ' ' ' ' ' ' ' ' ' ' ' ' ' ' G & & ",
"| | ' ' ' ' G ' ' W ' ' ' ' ' ' ' ' ' ' ' U M y A ] | ' ' ' ' ' ' ' ' ' ' ' ' ' ' ' ' ' ' ' ' G & & ",
"| | ' ' ' ' G ' ( / ' ' ' ' ' ' ' ' ' ' ' ' x p K <.| ' ' ' ' ' ' ' ' ' ' ' ' ' ' ' ' ' ' ' ' G & & ",
"| [ ' ' ' ' : ' ( / ( ' ' ' ' ' ' ' ' ' ' ' m 8 $ 2.[ ' ' U ' ' ' ' ' ' ' ' ' ' ' ' ' ' ' ' ' G & & ",
"| | ' ' ' ' G ' ' ' F ' ' ' ' ' ' ' ' ' ' ' m 7 q | ' ( ' ' ' ' ' ( ' ' ' ' ' ' ' ' ' ' ' ' ' G & & ",
"| | ' ' ' ' P U ' ' W ' ' ' ' ' ' ' ' ) ( ( M 0 0 ' | ^ ' ' ' ' ' T ' ' ' ' ' ' ' ' ' ' ' ' ' P & & ",
"| | ' ' ' ' I U ' ' W ' ' ' ' ' ' ' ' E ) ^ x 0 % _ ` D ' ' ' ' ' D ' ' ' ' ' ' ' ' ' ' ' ' ' P & & ",
"| | ^ ' ' ' P P ' ' ( U ' ( ' ' ( ' ( ' E F m 8 a Q F ( ^ ' ' U / / ' ' ( ' ^ ' ' ' ( ( ' ( ' I & & ",
"/ S ,.D E ( b ; n I I C J m G H ^ H R L f g t 1 ..S #.! W F K m g Z ^ ^ R I R I R k g T K A U % o o ",
"e ..p p k M y l Y t 0 5 5 q - J t 6 v q y y u q i u 4 M q  .s q p v N R t y M M y p p a y M M 2 a p ",
"t 5 7 6 $ 7 % % 6 $ % $ 7 % l 8 % 7 9 0 t 8 ..a y 7 @ 7 6 q % q h z 8 % j $ # = = 8 $ 6 @ % 6 + 1 # ",
"F $.&.@.$.;.;.@.@.+.$.@.%.;.;.:.@.>.:.:.>.>.+.a o.$.S 1.:.4.:.} ) ;.3.} _ >.2._ S d $.,.%.2.<.$.e   ",
"' ^ 5.2.~ | [ { _ -._ [ [ ~ | 2.2.;.2.2.;.Q +.5 B S W Q ;.%.~ _ / W ) _ F W ) | Q | | [ | | 3.'     ",
"6.5.' ' ( ' ' ( ' ( ' ' ' ' ' ' ' ' ' / / / $.$ t 2.` W ' ' ' ( ' ' ' U ' ( ' ' ' ' ' ' ' U ' | * X ",
"| | ' ' ' ' ' ' ' ' ^ ' ' ' ' ' ' ' ' F ( W / @ & { ' ^ ' ' ' ' ' ' ' ' ' F ' ' ' ' ' ' ' ' ' ' , * ",
"| | ' ' ' ' ' ' ' U ^ ' ' ' ' ' ' ' ' ' ( =.S + M ) ' ' ' ' ' ' ' ' ' ' ' ! ' ' ' ' ' ' ' ' ' ' & H ",
"| | ' ' ' ' ' ' ' ' ( U ' ' ' ' ' ' ' ' U F M X Y / / ( ' ' ' ' ' ' ' ' ' E ' ' ' ' ' ' ' ' ' G & & ",
"| | ' ' ' ' ' U ' ' ' ' ' ' ' ' ' ' ' ' ' ' x X a ) [ E ' ' ' ' ' ' ' ' ' ^ ' ' ' ' ' ' ' ' ' G & & ",
"| | ' ' ' ' ' ' ' ' ( ' ' ' ' ' ' ' ' ' ' ' M + a 2.[ ' ' ' ' ' ' ' ' ' ' ( ( ' ' ' ' ' ' ' ' G & & ",
"| | ' ' ' ' ' ' ' ' ( ( ' ' ' ' ' ' ' ' ' ' c & ..| ' ' ' ' ' ' ' ' ' ' ' / ' ' ' ' ' ' ' ' ' G & & ",
"| | ' ' ' ' ' ' ' U ' ' ' ' ' ' ' ' ' ' ' E 9 & X.} [ ' ' ' ' ' ' ' ' ' ' ( ' ' ' ' ' ' ' ' ' G & & ",
"| | ' ' ' ' ' ' ' ' ' ( ' ' ' ' ' ' ' ' ' =.* @ s ) } ' ' ' ' ' ' ' ' ' ' ^ ' ' ' ' ' ' ' ' ' G & & ",
"| | ' ' ' ' ' ' U ' ' ' ' ' ' ' ' ' ' ' ' F h $ g { 2.' ' ' ' ' ' ' ' ' ' ( ' ' ' ' ' ' ' ' ' G & & ",
"| | ' ' ' ' ' ' ' ' ' ' ' ' ' ' ' ' ' ' ' ' w $ T 2.| ' ' ' ' ' ' ' ' ' ' ' ' ' ' ' ' ' ' ' ' G & & ",
"| | ' ' ' ' ' ' ' ' ' ' ' ' ' ' ' ' ' ' ' ' % & C } | ' ' ' ' ' ' ' ' ' ' ( ' ' ' ' ' ' ' ' ' G & & ",
"| | ' ' ' ' ' ' ' ' ' ' ' ' ' ' ' ' ' ' ' ' h 8 V 3.| ' ' ' ' ' ' ' ' ' ' U ' ' ' ' ' ' ' ' ' G & & ",
"| | ' ' ' ' ' ' ' ' ' ' ' ' ' ' ' ' ' ' ' ' w q q { | ' ' ' ' ' ' ' ' ' ' ' ' ' ' ' ' ' ' ' ' G & & ",
"| | ' ' ' ' ' ' ' ' ' ' ' ' ' ' ' ' ' ' ' ! w s q _ | ' ' ' ' ' ' ' ' ' ' ' ' ' ' ' ' ' ' ' ' G & & ",
"| | ' ' ' ' ' ' ' ' ' ' ' ' ' ' ' ' ' ' ' *.> p q ] | ' ' ' ' ' ' ' ' ' ' ' ' ' ' ' ' ' ' ' ' G & & ",
"| | ' ' ' ' ' ' ' ' ' ' ' ' ' ' ' ' ' ' ' ' m q 7 / [ ' ' ' ' ' ' ' ' ' ' ' ' ' ' ' ' ' ' ' ' G & & ",
"| | ' ' ' ' ' ' ' ' ' ' ' ' ' ' ' ' ' ' ' ' m q % { } ' ' ' ' ' ' ' ' ' ' ' ' ' ' ' ' ' ' ' ' G & & ",
"| | ' ' ' ' ' ' ' ' ' ' ' ' ' ' ' ' ' ' ' ' M q % <.2.' ' ' ' ' ' ' ' ' ' ' ' ' ' ' ' ' ' ' ' G & & ",
"| | ' ' ' ' ' ' ' ' ' ' ' ' ' ' ' ' ' ' ' ' x y 8 <.| ' ' ' ' ' ' ' ' ' ' ' ' ' ' ' ' ' ' ' ' G & & ",
"' ' | ' ' G G G G G G G G G G G G G G G G x q i O F ' | ' ' G G G G G G G G G G G G G G G G G &     ",
"    & & & & & & & & & & & & & & & & & & & w 3 o 7     & & & & & & & & & & & & & & & & & & & &       ",
"    & & & & & & & & & & & & & & & & & & & & r   0     & & & & & & & & & & & & & & & & & & & &       "
};
