/* XPM */
static char * colectibol2_xpm[] = {
"50 50 112 2",
"  	c #545454",
". 	c #5C5555",
"+ 	c #9E9E9E",
"@ 	c #757575",
"# 	c #6C6C6C",
"$ 	c #873737",
"% 	c #6A0000",
"& 	c #000000",
"* 	c #616161",
"= 	c #872424",
"- 	c #490000",
"; 	c #120000",
"> 	c #635C5C",
", 	c #784444",
"' 	c #5B1212",
") 	c #531212",
"! 	c #212121",
"~ 	c #6D4D4D",
"{ 	c #2C1D1D",
"] 	c #7A6868",
"^ 	c #734343",
"/ 	c #6B0D0D",
"( 	c #844747",
"_ 	c #673B3B",
": 	c #631010",
"< 	c #7B0909",
"[ 	c #824949",
"} 	c #424242",
"| 	c #6D2C2C",
"1 	c #820808",
"2 	c #553333",
"3 	c #900404",
"4 	c #740A0A",
"5 	c #4C4C4C",
"6 	c #5D5C5C",
"7 	c #655656",
"8 	c #FFFFFF",
"9 	c #7C3535",
"0 	c #8B1C1C",
"a 	c #773E3E",
"b 	c #6A5555",
"c 	c #B9BAA2",
"d 	c #363636",
"e 	c #7A3B3B",
"f 	c #8B3131",
"g 	c #553B3B",
"h 	c #3E2F2F",
"i 	c #583E3E",
"j 	c #654B4B",
"k 	c #5E2E2E",
"l 	c #741E1E",
"m 	c #684646",
"n 	c #5B4343",
"o 	c #6B3A3A",
"p 	c #3C1A1A",
"q 	c #3D0000",
"r 	c #620202",
"s 	c #8A0303",
"t 	c #652B2B",
"u 	c #4C3333",
"v 	c #624444",
"w 	c #640E0E",
"x 	c #4C0B0B",
"y 	c #5C0E0E",
"z 	c #4A1616",
"A 	c #451717",
"B 	c #331C1C",
"C 	c #352626",
"D 	c #421818",
"E 	c #241E1E",
"F 	c #440F0F",
"G 	c #391515",
"H 	c #931717",
"I 	c #9D1E1E",
"J 	c #990B0B",
"K 	c #8D2B2B",
"L 	c #9A0505",
"M 	c #661D1D",
"N 	c #941A1A",
"O 	c #873E3E",
"P 	c #9D5F5F",
"Q 	c #7D4D4D",
"R 	c #736565",
"S 	c #745353",
"T 	c #822E2E",
"U 	c #1D0000",
"V 	c #650000",
"W 	c #770000",
"X 	c #2C2B2B",
"Y 	c #1F1F1F",
"Z 	c #940000",
"` 	c #F18C7A",
" .	c #370000",
"..	c #3A3A3A",
"+.	c #FB2823",
"@.	c #F7554A",
"#.	c #949582",
"$.	c #EACEB3",
"%.	c #F84B41",
"&.	c #F8423A",
"*.	c #F27C6C",
"=.	c #860000",
"-.	c #B60000",
";.	c #AD0000",
">.	c #332500",
",.	c #6E6464",
"'.	c #6C2323",
").	c #4C3A3A",
"!.	c #7E0202",
"~.	c #3D0E0E",
"{.	c #531B1B",
"].	c #530000",
"  . + @ @ @ @ @ @ @ @ @ @ @ @ @ @ @ @ @ @ # $ % & * * + @ @ @ @ @ @ @ @ @ @ @ @ @ @ @ @ @ @ @ * & & ",
"    + @ @ @ @ @ @ @ @ @ @ @ @ @ @ @ @ @ @ * = - ; * * + @ @ @ @ @ @ @ @ @ @ @ @ @ @ @ @ @ @ @ * & & ",
"+ + * * * * # * * * * * * * * * * * * * * > , ' ) + + * * * * * * * * * * * * * * * * * * * * @ ! ! ",
"@ @ * * * * * * * * * * * * * * * * * * * > ~ ' { ] @ * * * * * * * * * * * * * * * * * * * * * ! ! ",
"@ @ * * * * * * * * * * * * * * * * * * * * ^ ' / ( @ * * * * * * * * * * * * * * * * * * * * * ! ! ",
"@ @ * * * * * * * * * * * * * * * * * * * * _ : < [ @ * * * * * * * * * * * * * * * * * * * * } ! ! ",
"@ @ * * * * * * * * * * * * * * * * * * * * | 1 < @ @ * * * * * * * # * * * * * * * * * * * * } ! ! ",
"@ @ * * * * * * * * * * * * * * * * * * * * 2 3 4 @ @ * * * * * * * * * * * * * * * * * * * * 5 ! ! ",
"@ @ * * * * 6 * * 7 * * * * * * * * * * * & & ; & & & & & * * * * * * * * * * * * * * * * * * } ! ! ",
"@ @ * * * *   6 * ~ * * * * * * * * & & & & 8 & 8 8 8 8 & & & & * * * * * * * * * * * * * * * } ! ! ",
"@ @ * * * *   * > 7 * * * * * * * & & 8 8 8 8 8 & 8 8 8 8 8 8 & & * * * * * * * * * * * * * * } ! ! ",
"@ @ * * * *   * * 9 * * * * * & & & 8 8 8 8 8 8 8 & & 8 8 8 8 8 & & & * * * * * * * * * * * * } ! ! ",
"@ @ * * * *   * * 0 * * * * & & 8 8 8 8 8 8 8 8 8 8 8 & 8 8 8 8 8 8 & & * * * * * * * * * * * } ! ! ",
"@ @ * * * 6   * * a * * * & & 8 8 8 8 8 8 8 8 8 8 8 8 8 & 8 8 8 8 8 8 & & * * * * * * * * * * } ! ! ",
"@ @ * * * *   * * b 6 * * & 8 8 8 8 8 8 8 8 8 8 8 8 8 8 8 & 8 8 8 8 8 8 & * * * * * * * * * * } ! ! ",
"@ @ * * * * } * * ^ * * & & 8 8 8 8 8 8 8 8 8 8 8 8 8 8 8 & 8 8 8 8 8 8 & & * * * * * * * * * } ! ! ",
"@ @ * * * * } * > b * & & 8 8 8 8 8 8 8 8 8 8 8 8 8 8 8 8 & & 8 8 8 8 c 8 & & * * * * * * * * } ! ! ",
"@ # * * * * d * > b > & 8 8 8 8 8 8 8 8 8 8 8 8 8 8 8 8 & 8 & 8 8 8 8 8 8 8 & * * * * * * * * } ! ! ",
"@ @ * * * * } * * * e & 8 8 8 8 8 8 8 8 8 8 8 8 8 8 8 8 & 8 8 & 8 8 8 8 8 8 & * * * * * * * * } ! ! ",
"@ @ * * * *   6 * * & & 8 8 8 8 8 8 8 8 8 8 8 8 8 8 8 & 8 8 8 8 & 8 8 8 8 8 & & * * * * * * *   ! ! ",
"@ @ * * * * . 6 * * & 8 8 8 8 & & & 8 8 8 8 8 8 8 8 8 8 8 8 8 8 8 8 8 8 8 8 8 & * * * * * * *   ! ! ",
"@ @ 7 * * *     * * & 8 8 8 & & & & & 8 8 8 8 8 & & & 8 8 8 8 8 8 8 8 c 8 8 c & * * > > * > * . ! ! ",
"b 9 f a ~ > g h i . & 8 8 & & & & & & & 8 8 8 & & & & & 8 8 8 8 8 8 8 8 8 8 8 & j k l m n o 6 p q q ",
"r s 4 4 k t / u v w & 8 8 & & & & & & & 8 8 & & & & & & & 8 8 8 8 c 8 8 8 8 8 & / 4 4 < / t t x < 4 ",
"w y z A B z p p A B & 8 8 & & & & & & & 8 8 & & & & & & & 8 8 8 8 8 8 8 c 8 8 & C D B A { p A E F G ",
"e H I J H K K J J L & 8 8 & & & & & & & 8 8 & & & & & & & 8 8 8 8 8 8 8 c 8 8 & 9 M H f N ( O H r & ",
"* 7 P ( Q @ # R S T & & 8 & U & & U U & 8 8 & & & & & & & 8 8 8 8 8 8 8 8 8 & & , @ @ # @ @ [ * & & ",
"+ P * * > * * > * > * & 8 8 V U U W V 8 8 8 U & & & U & & 8 8 8 8 c 8 c c 8 & * * * * * * 6 * @ X Y ",
"@ @ * * * * * * * * 7 & 8 8 8 W Z V 8 8 8 8 `  .U & W & 8 8 c 8 8 8 8 8 8 8 & * * * * * * * * * ..X ",
"@ @ * * * * * * * 6 7 & & 8 8 ` +.8 8 8 8 8 8 @.W  .V 8 8 8 8 8 8 #.8 8 c & & * * * * * * * * * ! 5 ",
"@ @ * * * * * * * * > 6 & & 8 $.%.8 8 8 8 8 8 8 ` &.8 8 c 8 c 8 8 8 c 8 & & * * * * * * * * * } ! ! ",
"@ @ * * * * * 6 * * * * * & & *.` 8 8 8 8 8 8 8 8 &.$.8 c 8 8 c 8 8 8 8 & 7 * * * * * * * * * } ! ! ",
"@ @ * * * * * * * * > * * & 8 *.& 8 8 & 8 8 8 8 8 %.` 8 8 8 8 8 8 c 8 & & > > * * * * * * * * } ! ! ",
"@ @ * * * * * * * * > > * & 8 *.& 8 8 & 8 8 & 8 8 =.8 8 & c 8 8 8 8 & & * b * * * * * * * * * } ! ! ",
"@ @ * * * * * * * 6 * * * & 8 *.& 8 8 & 8 c & 8 8 -.8 8 & 8 c 8 & & & * * > * * * * * * * * * } ! ! ",
"@ @ * * * * * * * * * > * & 8 *.& 8 8 & 8 8 & 8 8 ;.8 8 & 8 8 & & * * * * 7 * * * * * * * * * } ! ! ",
"@ @ * * * * * * 6 * * * * & c *.& 8 8 & 8 8 & 8 8 V 8 c & & & & * * * * * > * * * * * * * * * } ! ! ",
"@ @ * * * * * * * * * * * & 8 ` & 8 c & 8 8 & 8 8 & 8 & & * * * * * * * * * * * * * * * * * * } ! ! ",
"@ @ * * * * * * * * * * * * & 8 & 8 8 & 8 8 & 8 8 & 8 & * * * * * * * * * > * * * * * * * * * } ! ! ",
"@ @ * * * * * * * * * * * * & 8 & 8 8 & 8 8 & #.8 8 8 & * * * * * * * * * 6 * * * * * * * * * } ! ! ",
"@ @ * * * * * * * * * * * * * & 8 8 8 & 8 8 & 8 8 8 & * * * * * * * * * * * * * * * * * * * * } ! ! ",
"@ @ * * * * * * * * * * * * * * & & 8 & 8 8 & 8 & & >.* * * * * * * * * * * * * * * * * * * * } ! ! ",
"@ @ * * * * * * * * * * * * * * * * & & & & & & ' ,.@ * * * * * * * * * * * * * * * * * * * * } ! ! ",
"@ @ * * * * * * * * * * * * * * * * * * * * '.' z b # * * * * * * * * * * * * * * * * * * * * } ! ! ",
"@ @ * * * * * * * * * * * * * * * * * * * * '.' p R ] * * * * * * * * * * * * * * * * * * * * } ! ! ",
"@ @ * * * * * * * * * * * * * * * * * * * * t ' p O ( * * * * * * * * * * * * * * * * * * * * } ! ! ",
"@ @ * * * * * * * * * * * * * * * * * * * * )./ D O @ * * * * * * * * * * * * * * * * * * * * } ! ! ",
"* * @ * * } } } } } } } } } } } } } } } } ).' !.~.e * @ * * } } } } } } } } } } } } } } } } } ! & & ",
"& & ! ! ! ! ! ! ! ! ! ! ! ! ! ! ! ! ! ! ! {.].q z & & ! ! ! ! ! ! ! ! ! ! ! ! ! ! ! ! ! ! ! ! & & & ",
"& & ! ! ! ! ! ! ! ! ! ! ! ! ! ! ! ! ! ! ! ! % & ) & & ! ! ! ! ! ! ! ! ! ! ! ! ! ! ! ! ! ! ! ! & & & "};
