/* XPM */
static char *_f156dc494ae41e098aaf2019afa3ffdwLyuGnL0rqbEEDmD[] = {
/* columns rows colors chars-per-pixel */
"50 50 24 1 ",
"  c None",
". c black",
"X c #120000",
"o c #1D0000",
"O c #370000",
"+ c #332500",
"@ c #650000",
"# c #770000",
"$ c #860000",
"% c #940000",
"& c #AD0000",
"* c #B60000",
"= c #FB2823",
"- c #F8423A",
"; c #F84B41",
": c #F84B42",
"> c #F7554A",
", c #F27C6C",
"< c #F37C6C",
"1 c #F18C7A",
"2 c #949582",
"3 c #B9BAA2",
"4 c #EACEB3",
"5 c #E7E8CA",
/* pixels */
"                                                  ",
"                                                  ",
"                                                  ",
"                                                  ",
"                                                  ",
"                                                  ",
"                                                  ",
"                                                  ",
"                     ..X.....                     ",
"                  ....5.5555....                  ",
"                 ..55555.555555..                 ",
"               ...5555555..55555...               ",
"              ..55555555555.555555..              ",
"             ..5555555555555.555555..             ",
"             .555555555555555.555555.             ",
"            ..555555555555555.555555..            ",
"           ..5555555555555555..555535..           ",
"           .5555555555555555.5.5555555.           ",
"           .5555555555555555.55.555555.           ",
"          ..555555555555555.5555.55555..          ",
"          .5555...555555555555555555555.          ",
"          .555.....55555...555555553553.          ",
"          .55.......555.....55555555555.          ",
"          .55.......55.......5555355555.          ",
"          .55.......55.......5555555355.          ",
"          .55.......55.......5555555355.          ",
"          ..5.o..oo.55.......555555555..          ",
"           .55@oo#@555o...o..555535335.           ",
"           .555#%@55551Oo.#.5535555555.           ",
"           ..551=555555>#O@5555552553..           ",
"            ..54;55555551-5535355535..            ",
"             ..,155555555-4535535555.             ",
"             .5,.55.55555;155555535..             ",
"             .5,.55.55.55$55.35555..              ",
"             .5,.55.53.55*55.535...               ",
"             .5,.55.55.55&55.55..                 ",
"             .3,.55.55.55@53....                  ",
"             .51.53.55.55.5..                     ",
"              .5.55.55.55.5.                      ",
"              .5.55.55.2555.                      ",
"               .555.55.555.                       ",
"                ..5.55.5..+                       ",
"                  ......                          ",
"                                                  ",
"                                                  ",
"                                                  ",
"                                                  ",
"                                                  ",
"                                                  ",
"                                                  "
};
