/* XPM */
static char *f1742ba0227f46da854dfd7f739803cb0LtJE4mWVKTPr7qW[] = {
/* columns rows colors chars-per-pixel */
"50 50 47 1 ",
"  c None",
". c black",
"X c gray3",
"o c #0B0B0B",
"O c #0C0C0C",
"+ c gray5",
"@ c gray6",
"# c #111111",
"$ c #131313",
"% c gray8",
"& c #161616",
"* c #191919",
"= c gray11",
"- c #251316",
"; c #202020",
": c gray14",
"> c #252525",
", c gray16",
"< c #2A2A2A",
"1 c #2F2F2F",
"2 c #353535",
"3 c #3C3C3C",
"4 c #45161E",
"5 c #690D1D",
"6 c #551621",
"7 c #591C27",
"8 c #563C41",
"9 c #733C46",
"0 c #444444",
"q c #494949",
"w c gray30",
"e c #614449",
"r c #8F051C",
"t c #BE1C38",
"y c #982034",
"u c #AB243B",
"i c #AA253C",
"p c #A0293D",
"a c #DA0F33",
"s c #DC0F32",
"d c #C51936",
"f c #D01334",
"g c #D11334",
"h c #F4052E",
"j c #E00C31",
"k c #932F40",
"l c white",
/* pixels */
"                                                  ",
"                                                  ",
"                                                  ",
"                                                  ",
"                      ;1<11w1                     ",
"                      +w1wwww                     ",
"                      -wlwwlw                     ",
"                      5eqwwee                     ",
"                      4i98euk                     ",
"                      *tsrhdw                     ",
"                     .<qpffkw                     ",
"                     .2wpa                        ",
"                   <;*wwkkje0                     ",
"                2<;<*1wwpwyy100                   ",
"               3+>*1<wwwpww60<1<                  ",
"               &&&=w2wwwpww7,1w<                  ",
"               *&=0wwwwwyeww2ww<                  ",
"               >*01wwwwwwkwwwww<                  ",
"               &1<wwwwwwwpwwww01                  ",
"               &w<wwwwwwwpwwww:w                  ",
"               &w;wwwwwwwpwwww=0                  ",
"               *0*wwwwwwwywwww01                  ",
"               <>2qwwwwwwpwwww<w                  ",
"               <&wwwwwwwwkwwww<w                  ",
"               <&wwwwwwwwwwwww1w                  ",
"               <*wwwwwwwwwwwww<w                  ",
"               <10wwwwwwwwwwww13                  ",
"               10<ww0wwwwwwwwww*                  ",
"                <,w32qwww0wwwww<                  ",
"                ,1 $w0w001w30ww,                  ",
"                <w +w;01<w3*1ww,                  ",
"                <w &0*<w<0*ww001                  ",
"                <w &<;101<1w31<w                  ",
"                1w &<*      &01                   ",
"                ww &>1      $1w                   ",
"                 < &&w      +ww                   ",
"                 < &+w      +ww                   ",
"                 < X>w      <ww                   ",
"                 < +*w      <0w                   ",
"                 < +2w      <<w                   ",
"                   Xww      <<w                   ",
"                   &ww      ><w                   ",
"                   &ww      >1w                   ",
"                   $ww      *ww                   ",
"                   +w       <                     ",
"                   &w       <                     ",
"                   *w       <                     ",
"                   <w       <                     ",
"                   >w       <                     ",
"                   *w       1                     "
};
