/* XPM */
static char *result[] = {
/* columns rows colors chars-per-pixel */
"50 50 129 2 ",
"   c black",
".  c #080000",
"X  c #0D0000",
"o  c #0F0000",
"O  c #150000",
"+  c #160000",
"@  c #170000",
"#  c #1A0000",
"$  c #1C0000",
"%  c #1D0000",
"&  c #200000",
"*  c #210000",
"=  c #220000",
"-  c #230000",
";  c #250000",
":  c #290000",
">  c #2B0000",
",  c #2F0000",
"<  c #300000",
"1  c #310000",
"2  c #300001",
"3  c #320000",
"4  c #330000",
"5  c #370000",
"6  c #3B0000",
"7  c #3E0000",
"8  c #420000",
"9  c #420003",
"0  c #450000",
"q  c #460000",
"w  c #420005",
"e  c #450004",
"r  c #4E0000",
"t  c #4F0000",
"y  c #4F0002",
"u  c #4A0004",
"i  c #500000",
"p  c #590000",
"a  c #5A0000",
"s  c #610000",
"d  c #650000",
"f  c #620007",
"g  c #6E0000",
"h  c #6E0005",
"j  c #740000",
"k  c #760000",
"l  c #770000",
"z  c #780000",
"x  c #7C0004",
"c  c #650012",
"v  c #727272",
"b  c #820000",
"n  c #860000",
"m  c #850007",
"M  c #8A0000",
"N  c #8F0001",
"B  c #83000E",
"V  c #920000",
"C  c #940000",
"Z  c #881B1B",
"A  c #A00000",
"S  c #A20000",
"D  c #AD0000",
"F  c #A1000B",
"G  c #B60000",
"H  c #B50007",
"J  c #BB0000",
"K  c #BE0000",
"L  c #BE000A",
"P  c #A2001D",
"I  c #B43D3D",
"U  c #C50000",
"Y  c #C60000",
"T  c #C70000",
"R  c #C70007",
"E  c #CC0000",
"W  c #CD0000",
"Q  c #CD0006",
"!  c #C3000D",
"~  c #D30000",
"^  c #D30005",
"/  c #D80000",
"(  c #DC0000",
")  c #DD0000",
"_  c #D80005",
"`  c #C70012",
"'  c #E10000",
"]  c #E50000",
"[  c #E70000",
"{  c #ED0000",
"}  c #EE0000",
"|  c #EF0000",
" . c #EA0007",
".. c #E1000B",
"X. c #F30000",
"o. c #F40000",
"O. c #F70D0D",
"+. c #F60E0E",
"@. c #E70011",
"#. c #EE1B1B",
"$. c #FF1717",
"%. c #E62828",
"&. c #E32D2D",
"*. c #FF2222",
"=. c #FF2727",
"-. c #FF2C2C",
";. c #E03333",
":. c #FF3232",
">. c #FF3838",
",. c #FF3A3A",
"<. c #9A5252",
"1. c #AA4545",
"2. c #D14B4B",
"3. c #CB5454",
"4. c #C45F5F",
"5. c #FF4949",
"6. c #FF5252",
"7. c #FF5D5D",
"8. c #FF5F5F",
"9. c #FF6B6B",
"0. c #FF7979",
"q. c gray62",
"w. c #A98C8C",
"e. c #FF8888",
"r. c #FF9A9A",
"t. c #FFB1B1",
"y. c #FFC8C8",
"u. c #FFE2E2",
"i. c white",
/* pixels */
"i.i.i.i.i.i.i.i.6.%     i.i.i.i.i.i.i.i.i.i.i.i.i.i.i.i.i.i.i.i.i.i.% D   i.i.i.i.i.i.i.i.i.i.i.i.i.",
"i.i.i.i.i.i.i.i.e.n     i.i.i.i.i.i.i.i.i.i.i.i.i.i.i.i.i.i.i.i.i.u.d l   i.i.i.i.i.i.i.i.i.i.i.i.i.",
"i.i.i.i.i.i.i.i.r.G     i.i.i.i.i.i.i.i.i.i.i.i.i.i.i.i.i.i.i.i.i.e.% l   i.i.i.i.i.i.i.i.i.i.i.i.i.",
"q.q.q.q.q.q.v v v U     i.i.i.i.q.q.q.q.q.q.q.q.q.q.q.q.q.q.q.v v I d n   i.i.i.i.q.q.q.q.q.q.q.q.q.",
"q.q.q.q.q.q.v v v [     i.i.i.i.q.q.q.q.q.q.q.q.q.q.q.q.q.q.q.v v 1.  G   i.i.i.i.q.q.q.q.q.q.q.q.q.",
"q.q.q.q.q.q.v v v (     i.i.i.i.q.q.q.q.q.q.q.q.q.q.q.q.q.q.q.v v v   G   i.i.i.i.q.q.q.q.q.q.q.q.q.",
"q.q.q.q.q.q.v v v [ %   i.i.i.i.q.q.q.q.q.q.q.q.q.q.q.q.q.q.q.v v v % G   i.i.i.i.q.q.q.q.q.q.q.q.q.",
"q.q.q.q.q.q.v v v ) n   i.i.i.i.q.q.q.q.q.q.q.q.q.q.q.q.q.q.q.v v v l D   i.i.i.i.q.q.q.q.q.q.q.q.q.",
"q.q.q.q.q.q.v v v ] D   i.i.i.i.q.q.q.q.q.q.q.q.q.q.q.q.q.q.q.v v v l d   i.i.i.i.q.q.q.q.q.q.q.q.q.",
"q.q.q.q.q.q.v v v Y n   i.i.i.i.q.q.q.q.q.q.q.q.q.q.q.q.q.q.q.v v v l %   i.i.i.i.q.q.q.q.q.q.q.q.q.",
"q.q.q.q.q.q.v v v ] D   i.i.i.i.q.q.q.q.q.q.q.q.q.q.q.q.q.q.q.v v v d n   i.i.i.i.q.q.q.q.q.q.q.q.q.",
"q.q.q.q.q.q.v v v K l   i.i.i.i.q.q.q.q.q.q.q.q.q.q.q.q.q.q.q.v v v   G   i.i.i.i.q.q.q.q.q.q.q.q.q.",
"q.q.q.q.q.q.v v v / d   i.i.i.i.q.q.q.q.q.q.q.q.q.q.q.q.q.q.q.v v v   D   i.i.i.i.q.q.q.q.q.q.q.q.q.",
"q.q.q.q.q.q.v v v ~     i.i.i.i.q.q.q.q.q.q.q.q.q.q.q.q.q.q.q.v v v   l   i.i.i.i.q.q.q.q.q.q.q.q.q.",
"q.q.q.q.q.q.v v v Y     i.i.i.i.q.q.q.q.q.q.q.q.q.q.q.q.q.q.q.v v v   n   i.i.i.i.q.q.q.q.q.q.q.q.q.",
"q.q.q.q.q.q.v v v ]     i.i.i.i.q.q.q.q.q.q.q.q.q.q.q.q.q.q.q.v v v   D   i.i.i.i.q.q.q.q.q.q.q.q.q.",
"q.q.q.q.q.q.v v v K     i.i.i.i.q.q.q.q.q.q.q.q.q.q.q.q.q.q.q.v v v   l   i.i.i.i.q.q.q.q.q.q.q.q.q.",
"q.q.q.q.q.q.v v v ~     i.i.i.i.q.q.q.q.q.q.q.q.q.q.q.q.q.q.q.v v v   l   i.i.i.i.q.q.q.q.q.q.q.q.q.",
"q.q.q.q.q.q.v v v D 5   i.i.i.i.q.q.q.q.q.q.q.q.q.q.q.q.q.q.q.v v v   n   i.i.i.i.q.q.q.q.q.q.q.q.q.",
"v v v v v v v v v l D   i.i.i.i.v v v v v v v v v v v v v v v v v v % D   i.i.i.i.v v v v v v v v v ",
"v v v v v v v v v l l   i.i.i.i.v v v v v v v v v v v v v v v v v v C d   i.i.i.i.v v v v v v v v v ",
"v v v v v v v v v C l   i.i.i.i.v v v v v v v v v v v v v v v v v v / 5   i.i.i.i.v v v v v v v v v ",
"                @ d d                                               S                               ",
"2 w ..@.F ! e u y L B H 9 h s 6 q i + 7 + % * O - . - ; 1 $ * p C A C } E ( G K U ~ n A r C C j : # ",
"_ P c R f m `  .Q ^ x N D G ' [ { o.[ V t , < & X 8 z | G W G W T ) T o.X.) S T ' D S ) T T W | 4 3 ",
"-.i.i.i.i.i.i.i.r.,.0.9.e.7.r.>.e.r.>.>.:.Z J X g 6.*.7.6.r.7.r.i.i.i.e.*.t.i.i.e.r.i.i.i.i.r.S ( = ",
"5.i.i.i.i.i.i.i.i.$.6.-.r.i.i.i.r.i.i.i.r.<.a > S r.i.i.r.u.i.i.i.i.i.r.y.=.i.i.r.i.i.i.i.i.i.  } o ",
"6.i.i.i.i.i.i.i.i.-.8.7.i.i.i.i.i.i.i.i.i.r.0 n   i.i.i.i.r.i.i.i.i.i.i.6.-.u.i.i.i.i.i.i.i.i.  o.k ",
"e.i.i.q.q.q.q.q.w.&.O.q.q.q.q.q.q.q.q.v v v b G   i.i.i.q.q.q.q.q.q.q.q.4.&.3.q.q.q.q.q.v v v   n M ",
"e.i.i.q.q.q.q.q.4.%.O.q.q.q.q.q.q.q.q.v v v W D   i.i.i.q.q.q.q.q.q.q.q.q.;.3.q.q.q.q.q.v v v   K S ",
"r.i.i.q.q.q.q.q.q.#.+.q.q.q.q.q.q.q.q.v v v d n   i.i.i.q.q.q.q.q.q.q.q.q.4.3.q.q.q.q.q.v v v   / 5 ",
"i.i.i.q.q.q.q.q.q.&.#.q.q.q.q.q.q.q.q.v v v   D   i.i.i.q.q.q.q.q.q.q.q.q.q.4.q.q.q.q.q.v v v   W D ",
"i.i.i.q.q.q.q.q.q.&.&.q.q.q.q.q.q.q.q.v v v   l   i.i.i.q.q.q.q.q.q.q.q.q.w.q.q.q.q.q.q.v v v   n l ",
"i.i.i.q.q.q.q.q.q.&.&.q.q.q.q.q.q.q.q.v v v   n   i.i.i.q.q.q.q.q.q.q.q.q.4.w.q.q.q.q.q.v v v   S C ",
"i.i.i.q.q.q.q.q.q.&.;.q.q.q.q.q.q.q.q.v v v   D   i.i.i.q.q.q.q.q.q.q.q.q.q.3.q.q.q.q.q.v v v     / ",
"i.i.i.q.q.q.q.q.q.&.3.q.q.q.q.q.q.q.q.v v v   l   i.i.i.q.q.q.q.q.q.q.q.q.q.3.q.q.q.q.q.v v v     W ",
"i.i.i.q.q.q.q.q.q.&.3.q.q.q.q.q.q.q.q.v v v   d   i.i.i.q.q.q.q.q.q.q.q.q.q.3.q.q.q.q.q.v v v     n ",
"i.i.i.q.q.q.q.q.q.&.4.q.q.q.q.q.q.q.q.v v v       i.i.i.q.q.q.q.q.q.q.q.q.q.4.q.q.q.q.q.v v v     G ",
"i.i.i.q.q.q.q.q.q.&.q.q.q.q.q.q.q.q.q.v v v       i.i.i.q.q.q.q.q.q.q.q.q.q.q.q.q.q.q.q.v v v     D ",
"i.i.i.q.q.q.q.q.q.;.w.q.q.q.q.q.q.q.q.v v v   %   i.i.i.q.q.q.q.q.q.q.q.q.q.q.q.q.q.q.q.v v v     l ",
"i.i.i.q.q.q.q.q.q.4.2.q.q.q.q.q.q.q.q.v v v   d   i.i.i.q.q.q.q.q.q.q.q.q.q.q.q.q.q.q.q.v v v     l ",
"i.i.i.q.q.q.q.q.q.q.;.q.q.q.q.q.q.q.q.v v v       i.i.i.q.q.q.q.q.q.q.q.q.q.w.q.q.q.q.q.v v v     l ",
"i.i.i.q.q.q.q.q.q.q.3.q.q.q.q.q.q.q.q.v v v       i.i.i.q.q.q.q.q.q.q.q.q.q.3.q.q.q.q.q.v v v     l ",
"i.i.i.q.q.q.q.q.q.q.3.q.q.q.q.q.q.q.q.v v v       i.i.i.q.q.q.q.q.q.q.q.q.q.3.q.q.q.q.q.v v v     d ",
"i.i.i.v v v v v v v I v v v v v v v v v v v       i.i.i.v v v v v v v v v v 1.v v v v v v v v       ",
"i.i.i.v v v v v v v I v v v v v v v v v v v       i.i.i.v v v v v v v v v v v v v v v v v v v     % ",
"i.i.i.v v v v v v v I v v v v v v v v v v v       i.i.i.v v v v v v v v v v v v v v v v v v v     l ",
"                    l                                                                             l ",
"                    l                                                                             d ",
"                    n                                                                               "
};
