/* XPM */
static char * saida2_xpm[] = {
"50 50 15 1",
" 	c #545454",
".	c #5C5555",
"+	c #9E9E9E",
"@	c #757575",
"#	c #C23131",
"$	c #212121",
"%	c #616161",
"&	c #000000",
"*	c #6C6C6C",
"=	c #9E0202",
"-	c #424242",
";	c #4C4C4C",
">	c #5D5C5C",
",	c #635C5C",
"'	c #6A5555",
" .+@@@@@@@@@########################$$@@@@@@@@@%&&",
"  +@@@@@@@@@########################$$@@@@@@@@@%&&",
"++%%%%*%%%%%##======================$$%%%%%%%%%@$$",
"@@%%%%%%%%%%##======================$$%%%%%%%%%%$$",
"@@%%%%%%%%%%##======================$$%%%%%%%%%%$$",
"@@%%%%%%%%%%##======================$$%%%%%%%%%-$$",
"@@%%%%%%%%%%##===$$$$$$$$$$$$$$$$===$$%%%%%%%%%-$$",
"@@%%%%%%%%%%##===$$$$$$$$$$$$$$$$===$$%%%%%%%%%;$$",
"@@%%%%%%%%%%##===$====$====$===##===$$%%%%%%%%%-$$",
"@@%%%%%>%%%%##===$====$====$===##==#$$%%%%%%%%%-$$",
"@@%%%%%%,%%%##===$====$====$===##==#$$%%%%%%%%%-$$",
"@@%%%%%%%%%%##===$====$====$===##==$$$%%%%%%%%%-$$",
"@@%%%%%%%%%%##===$====$====$===##==$$$%%%%%%%%%-$$",
"@@%%%>%%%%%%##===$====$====$===##==$$$%%%%%%%%%-$$",
"@@%%%%%%%%%%##===$====$====$===##==$$$%%%%%%%%%-$$",
"@@%%%%%%%%%%##===$====$====$===##==$$$%%%%%%%%%-$$",
"@@%%%%%%%%%%##===$====$====$===##==$$$%%%%%%%%%-$$",
"@*%%%%%%%'%%##===$====$====$===##===$$%%%%%%%%%-$$",
"@@%%%%%%%%%%##===$====$====$===##===$$%%%%%%%%%-$$",
"@@%%%%%%%%%%##===$====$====$===##===$$%%%%%%%%% $$",
"@@%%%%%%%%%%##====###############===$$%%%%%%%%% $$",
"@@%%%%%%%%%%##======================$$%%%%%%%%%.$$",
"@@%%%%%%%%%%##======================$$%%%%%%%%%%$$",
"@@%%%%%%%%%%##===###$$==============$$%%%%%%%%%%$$",
"@@%%%%%%%%%%##===###$$==============$$%%%%%%%%%%$$",
"@@%%%%%%%%%%##===###$$==============$$%%%%%%%%%%$$",
"@@%%%%%%%%%%##===$$$$$==============$$%%%%%%%%%%$$",
"@@%%%%%%%%%%##======================$$%%%%%%%%%%$$",
"@@%%%%%%%%%%##======================$$%%%%%%%%%%$$",
"@@%%%%%%%%%%##===$$$$$$$$$$$$$$$$===$$%%%%%%%%%%$$",
"@@%%%%%%%%%>##===$====$====$===##===$$%%%%%%%%%-$$",
"@@%%%%%>%%%%##===$====$====$===##===$$%%%%%%%%%-$$",
"@@%%%%%%%%%%##===$====$====$===##===$$,%%%%%%%%-$$",
"@@%%%%%%%%,,##===$====$====$===##===$$%%%%%%%%%-$$",
"@@%%%%%%%%%%##===$====$====$===##===$$%%%%%%%%%-$$",
"@@%%%%%%%%%,##===$====$====$===##===$$%%%%%%%%%-$$",
"@@%%%%%%%%%%##===$====$====$===##===$$%%%%%%%%%-$$",
"@@%%%%%%%%%%##===$====$====$===##===$$%%%%%%%%%-$$",
"@@%%%%%%%%%%##===$====$====$===##==#$$%%%%%%%%%-$$",
"@@%%%%%%%%%%##===$====$====$===##==$$$%%%%%%%%%-$$",
"@@%%%%%%%%%%##===$====$====$===##==$$$%%%%%%%%%-$$",
"@@%%%%%%%%%%##===$====$====$===##==$$$%%%%%%%%%-$$",
"@@%%%%%%%%%%##====###############==$$$%%%%%%%%%-$$",
"@@%%%%%%%%%%##====###############==$$$%%%%%%%%%-$$",
"@@%%%%%%%%%%##=====================$$$%%%%%%%%%-$$",
"@@%%%%%%%%%%##======================$$%%%%%%%%%-$$",
"@@%%%%%%%%%%##======================$$%%%%%%%%%-$$",
"%%@%%-------##======================$$---------$&&",
"&&$$$$$$$$$$$$$$$$$$$$$$$$$$$$$$$$$$$$$$$$$$$$$&&&",
"&&$$$$$$$$$$$$$$$$$$$$$$$$$$$$$$$$$$$$$$$$$$$$$&&&"};
