/* XPM */
static char *_d8d82b6b8534d89fcf024d3049b10demIOqBrauJADB4pee[] = {
/* columns rows colors chars-per-pixel */
"50 50 4 1 ",
"  c None",
". c gray13",
"X c #9E0202",
"o c #C23131",
/* pixels */
"            oooooooooooooooooooooooo..            ",
"            oooooooooooooooooooooooo..            ",
"            ooXXXXXXXXXXXXXXXXXXXXXX..            ",
"            ooXXXXXXXXXXXXXXXXXXXXXX..            ",
"            ooXXXXXXXXXXXXXXXXXXXXXX..            ",
"            ooXXXXXXXXXXXXXXXXXXXXXX..            ",
"            ooXXX................XXX..            ",
"            ooXXX................XXX..            ",
"            ooXXX.XXXX.XXXX.XXXooXXX..            ",
"            ooXXX.XXXX.XXXX.XXXooXXo..            ",
"            ooXXX.XXXX.XXXX.XXXooXXo..            ",
"            ooXXX.XXXX.XXXX.XXXooXX...            ",
"            ooXXX.XXXX.XXXX.XXXooXX...            ",
"            ooXXX.XXXX.XXXX.XXXooXX...            ",
"            ooXXX.XXXX.XXXX.XXXooXX...            ",
"            ooXXX.XXXX.XXXX.XXXooXX...            ",
"            ooXXX.XXXX.XXXX.XXXooXX...            ",
"            ooXXX.XXXX.XXXX.XXXooXXX..            ",
"            ooXXX.XXXX.XXXX.XXXooXXX..            ",
"            ooXXX.XXXX.XXXX.XXXooXXX..            ",
"            ooXXXXoooooooooooooooXXX..            ",
"            ooXXXXXXXXXXXXXXXXXXXXXX..            ",
"            ooXXXXXXXXXXXXXXXXXXXXXX..            ",
"            ooXXXooo..XXXXXXXXXXXXXX..            ",
"            ooXXXooo..XXXXXXXXXXXXXX..            ",
"            ooXXXooo..XXXXXXXXXXXXXX..            ",
"            ooXXX.....XXXXXXXXXXXXXX..            ",
"            ooXXXXXXXXXXXXXXXXXXXXXX..            ",
"            ooXXXXXXXXXXXXXXXXXXXXXX..            ",
"            ooXXX................XXX..            ",
"            ooXXX.XXXX.XXXX.XXXooXXX..            ",
"            ooXXX.XXXX.XXXX.XXXooXXX..            ",
"            ooXXX.XXXX.XXXX.XXXooXXX..            ",
"            ooXXX.XXXX.XXXX.XXXooXXX..            ",
"            ooXXX.XXXX.XXXX.XXXooXXX..            ",
"            ooXXX.XXXX.XXXX.XXXooXXX..            ",
"            ooXXX.XXXX.XXXX.XXXooXXX..            ",
"            ooXXX.XXXX.XXXX.XXXooXXX..            ",
"            ooXXX.XXXX.XXXX.XXXooXXo..            ",
"            ooXXX.XXXX.XXXX.XXXooXX...            ",
"            ooXXX.XXXX.XXXX.XXXooXX...            ",
"            ooXXX.XXXX.XXXX.XXXooXX...            ",
"            ooXXXXoooooooooooooooXX...            ",
"            ooXXXXoooooooooooooooXX...            ",
"            ooXXXXXXXXXXXXXXXXXXXXX...            ",
"            ooXXXXXXXXXXXXXXXXXXXXXX..            ",
"            ooXXXXXXXXXXXXXXXXXXXXXX..            ",
"            ooXXXXXXXXXXXXXXXXXXXXXX..            ",
"            ..........................            ",
"            ..........................            "
};
